<svg width="24" height="24" xmlns="http://www.w3.org/2000/svg"><path fill="#B5B5B5" d="M22.659,8.735l0,11.694c0,1.413 -1.174,2.571 -2.605,2.571l-16.08,0c-1.432,0 -2.605,-1.158 -2.605,-2.571l0,-11.694l21.29,0Zm-4.742,10.328c0.235,0 0.447,-0.185 0.447,-0.44l0,-1.389c0,-0.232 -0.188,-0.44 -0.447,-0.44l-2.136,0c-0.234,0 -0.446,0.185 -0.446,0.44l0,1.389c0,0.232 0.188,0.44 0.446,0.44l2.136,0Zm-4.858,0c0.234,0 0.445,-0.185 0.445,-0.44l0,-1.389c0,-0.232 -0.187,-0.44 -0.445,-0.44l-2.137,0c-0.234,0 -0.446,0.185 -0.446,0.44l0,1.389c0,0.232 0.188,0.44 0.446,0.44l2.137,0Zm-4.836,0c0.235,0 0.446,-0.185 0.446,-0.44l0,-1.389c0,-0.232 -0.188,-0.44 -0.446,-0.44l-2.136,0c-0.235,0 -0.446,0.185 -0.446,0.44l0,1.389c0,0.232 0.188,0.44 0.446,0.44l2.136,0Zm9.694,-4.122c0.235,0 0.447,-0.185 0.447,-0.44l0,-1.389c0,-0.232 -0.188,-0.44 -0.447,-0.44l-2.136,0c-0.234,0 -0.446,0.185 -0.446,0.44l0,1.389c0,0.232 0.188,0.44 0.446,0.44l2.136,0Zm-4.858,0c0.234,0 0.445,-0.185 0.445,-0.44l0,-1.389c0,-0.232 -0.187,-0.44 -0.445,-0.44l-2.137,0c-0.234,0 -0.446,0.185 -0.446,0.44l0,1.389c0,0.232 0.188,0.44 0.446,0.44l2.137,0Zm-4.836,0c0.235,0 0.446,-0.185 0.446,-0.44l0,-1.389c0,-0.232 -0.188,-0.44 -0.446,-0.44l-2.136,0c-0.235,0 -0.446,0.185 -0.446,0.44l0,1.389c0,0.232 0.188,0.44 0.446,0.44l2.136,0Zm7.394,-11.718l0,-0.81c0,-0.788 0.634,-1.413 1.432,-1.413c0.798,0 1.432,0.625 1.432,1.413l0,0.81l1.549,0c1.455,0 2.606,1.135 2.629,2.571l0,1.32l-21.29,0l0,-1.32c0,-1.413 1.173,-2.571 2.605,-2.571l1.55,0l0,-0.81c0,-0.788 0.633,-1.413 1.431,-1.413c0.799,0 1.432,0.625 1.432,1.413l0,0.81l7.23,0Z"/></svg>